PathFileType	4	(X/Y/Z)	static.trc
DataRate	CameraRate	NumFrames	NumMarkers	Units	OrigDataRate	OrigDataStartFrame	OrigNumFrames
250.000000	250.000000	4	55	mm	250.000000	80	647
Frame#	Time	C7			RSH			LSH			MAN			T7			LARM			LELB			LFOREARM			LWR			RARM			RELB			RFOREARM			RWR			RASI			LASI			SACR			P1			P2			P3			LTHLP			LTHLD			LTHAP			LTHAD			LLEPI			LPAT			LMEPI			LTIAP			LTIAD			LTILAT			LLMAL			LMMAL			LHEEL			LMFS			LMFL			LP1MT			LTOE			LP5MT			RTHLP			RTHLD			RTHAP			RTHAD			RLEPI			RPAT			RMEPI			RTIAP			RTIAD			RTILAT			RLMAL			RMMAL			RHEEL			RMFS			RMFL			RP1MT			RTOE			RP5MT			
		X1	Y1	Z1	X2	Y2	Z2	X3	Y3	Z3	X4	Y4	Z4	X5	Y5	Z5	X6	Y6	Z6	X7	Y7	Z7	X8	Y8	Z8	X9	Y9	Z9	X10	Y10	Z10	X11	Y11	Z11	X12	Y12	Z12	X13	Y13	Z13	X14	Y14	Z14	X15	Y15	Z15	X16	Y16	Z16	X17	Y17	Z17	X18	Y18	Z18	X19	Y19	Z19	X20	Y20	Z20	X21	Y21	Z21	X22	Y22	Z22	X23	Y23	Z23	X24	Y24	Z24	X25	Y25	Z25	X26	Y26	Z26	X27	Y27	Z27	X28	Y28	Z28	X29	Y29	Z29	X30	Y30	Z30	X31	Y31	Z31	X32	Y32	Z32	X33	Y33	Z33	X34	Y34	Z34	X35	Y35	Z35	X36	Y36	Z36	X37	Y37	Z37	X38	Y38	Z38	X39	Y39	Z39	X40	Y40	Z40	X41	Y41	Z41	X42	Y42	Z42	X43	Y43	Z43	X44	Y44	Z44	X45	Y45	Z45	X46	Y46	Z46	X47	Y47	Z47	X48	Y48	Z48	X49	Y49	Z49	X50	Y50	Z50	X51	Y51	Z51	X52	Y52	Z52	X53	Y53	Z53	X54	Y54	Z54	X55	Y55	Z55	

81	0.32	-691.4086914062502	1569.839477539063	314.1829528808595	-646.5017700195315	1557.785888671876	477.8591918945315	-684.4318847656252	1554.412719726563	158.5501098632813	-536.2473144531252	1482.346923828125	309.8948974609376	-744.4345703125002	1374.511108398438	320.7453613281251	-708.567810058594	1377.56396484375	41.48881149291994	-730.2280883789065	1253.70458984375	-15.79639434814454	-687.469177246094	1145.087768554688	-103.0155410766602	-669.1104125976565	1021.294677734375	-165.6332550048829	-666.5834960937502	1388.750122070313	589.1875610351565	-697.424743652344	1264.589599609375	654.012634277344	-656.3787841796877	1154.421875	738.364929199219	-639.6269531250002	1032.307739257813	802.1513061523442	-531.3726196289065	1086.31982421875	401.843933105469	-558.0058593750002	1090.503784179688	186.4762420654297	-728.1226196289065	1134.684326171875	321.0591430664064	-749.7749023437502	1109.002563476563	269.7441711425782	-739.2720336914065	1105.348510742188	375.6026000976564	-774.1553344726567	1051.432250976563	323.814910888672	-669.5547485351565	799.1333618164067	107.8695983886719	-666.256286621094	685.0218505859377	113.9578475952149	-536.4827270507815	783.3200683593755	174.1373596191407	-558.188659667969	674.5656738281252	180.9937286376954	-661.5600585937502	559.3826904296877	123.9448928833008	-581.7727661132815	560.8171386718752	185.8044738769532	-662.3741455078127	542.112731933594	249.6753387451173	-645.3459472656252	382.0366516113282	188.8697052001954	-660.6002197265627	244.1142578125001	181.7230987548829	-696.5928344726565	321.3118896484376	108.9958877563477	-701.8283691406252	102.6713790893555	121.8865127563477	-680.6108398437502	112.9661865234376	214.7352294921876	-765.5056762695315	61.21443176269534	166.2450866699219	-600.4171142578127	94.57757568359378	169.6326446533204	-628.6638793945315	69.5685729980469	107.2326583862305	-553.2513427734377	46.36740112304689	202.7343902587892	-497.7117614746096	58.48798370361331	163.9343872070313	-576.659118652344	35.95459747314455	78.52613067626956	-631.204772949219	825.2678833007817	515.8665161132815	-634.618347167969	711.5107421875002	510.5778808593752	-527.9243774414065	782.401000976563	425.1598205566409	-548.9808349609377	686.0784912109377	421.5534973144534	-652.059753417969	559.6936645507815	490.841247558594	-584.2314453125002	550.7747802734377	427.3637390136721	-685.1263427734377	544.1855468750002	367.8678588867189	-658.252136230469	344.0242614746095	420.652770996094	-673.0728149414065	218.0855407714845	414.764343261719	-693.3999633789065	338.4588012695314	507.5812683105471	-694.8841552734377	103.1300048828126	482.3952636718752	-684.7928466796877	112.7885513305665	388.3482666015627	-765.4454345703127	59.2350769042969	441.5871582031252	-592.4822998046877	97.95769500732428	432.141296386719	-629.350280761719	69.6503829956055	491.181335449219	-554.3278808593752	49.02454376220706	388.7106628417971	-494.0408020019534	59.02836990356448	426.2402954101565	-569.865661621094	40.70214080810548	515.9095458984377	
82	0.324	-691.5725097656252	1569.905395507813	314.5664367675782	-646.5219726562502	1557.786499023438	477.9414367675784	-684.517272949219	1554.436035156251	158.6114044189454	-536.3577880859377	1482.418334960938	310.0769042968751	-744.5378417968752	1374.540161132813	320.8110656738282	-708.6271972656252	1377.574096679688	41.59492111206056	-730.2366333007815	1253.714233398438	-15.77521324157716	-687.4139404296877	1145.064819335938	-103.0081787109376	-669.0667114257815	1021.232421875	-165.5596618652344	-666.7076416015627	1388.74755859375	589.114685058594	-697.4455566406252	1264.6259765625	654.0656738281252	-656.425720214844	1154.46533203125	738.448669433594	-639.6838378906252	1032.349853515625	802.2326660156255	-531.371765136719	1086.335083007813	401.9205017089846	-558.0134887695315	1090.504028320313	186.4211578369141	-728.199890136719	1134.656494140625	321.0905761718751	-749.8057250976565	1109.038208007813	269.8438110351564	-734.518981933594	1104.730590820313	375.0742187500001	-774.1845092773442	1051.409301757813	323.8445129394532	-669.5617675781252	799.1342163085942	107.9239959716797	-666.2966308593752	685.0476684570315	114.0116958618165	-536.516540527344	783.3676757812505	174.2969360351563	-558.2209472656252	674.5896606445315	181.1198425292969	-661.5469360351565	559.2479248046877	123.8275375366212	-581.768005371094	560.8226318359377	185.8057861328126	-662.3542480468752	542.1456298828127	249.7788391113282	-645.2586059570315	382.0741577148439	188.8090209960938	-660.5614013671877	244.1289672851564	181.7729187011719	-696.5762939453127	321.3360595703126	109.0634078979493	-701.8145751953127	102.6513977050782	121.8789596557618	-680.6143798828127	112.9548797607422	214.6702423095704	-765.5003662109377	61.2158012390137	166.228988647461	-600.3499755859377	94.56445312500003	169.4603729248047	-628.7214355468752	69.60305786132815	107.2241821289063	-553.3521118164065	46.35668563842775	202.6524200439454	-497.8034973144534	58.51110839843753	164.1467285156251	-576.8084716796877	35.8954200744629	78.65620422363284	-631.2105712890627	825.242065429688	515.8958740234377	-634.6534423828127	711.5242309570315	510.6063232421877	-527.9191894531252	782.4310913085942	425.1474914550784	-548.9771118164065	686.0396728515627	421.4587402343752	-652.0563964843752	559.7930297851565	490.9648437500002	-584.251403808594	550.766296386719	427.4540710449221	-685.2270507812502	544.2005004882815	367.9312133789064	-658.252136230469	344.0178527832032	420.6459655761721	-673.0315551757815	218.078338623047	414.6913146972659	-693.403747558594	338.4480285644532	507.6380310058596	-695.1015625000002	102.9696960449219	482.1822814941409	-684.8002929687502	112.799430847168	388.3459777832034	-765.503112792969	59.28837966918948	441.5577392578127	-592.500183105469	98.02064514160162	432.234558105469	-629.3569335937502	69.68097686767581	491.193542480469	-554.3518676757815	49.05952453613284	388.6863708496096	-494.0056762695315	59.06132125854495	426.2479553222659	-569.8377075195315	40.67248153686525	515.9265136718752	
83	0.328	-691.5701904296877	1569.886474609376	314.2843627929689	-646.5711669921877	1557.788818359376	477.9456176757815	-684.5896606445315	1554.410400390626	158.6607055664063	-536.3936767578127	1482.409423828125	310.1282348632814	-744.5543212890627	1374.521240234375	320.8206787109376	-708.6600341796877	1377.511474609375	41.61467742919923	-730.2742309570315	1253.644897460938	-15.5938835144043	-687.3748168945315	1145.0791015625	-103.0077667236329	-668.9985351562502	1021.208740234375	-165.5572357177735	-666.756530761719	1388.7998046875	589.221374511719	-697.5450439453127	1264.645385742188	654.1071777343752	-656.5461425781252	1154.490600585938	738.4971313476565	-639.8301391601565	1032.369506835938	802.3005371093755	-531.4395751953127	1086.36328125	401.9288330078127	-558.0894165039065	1090.5078125	186.5562591552735	-728.2053833007815	1134.706909179688	321.175994873047	-749.7426757812502	1108.97314453125	270.0067749023439	-734.493835449219	1104.690795898438	375.1710510253907	-774.2119750976567	1051.416259765625	323.8894958496095	-669.592224121094	799.1615600585942	107.9632949829102	-666.3088378906252	685.054870605469	114.0285263061524	-536.5130004882815	783.3830566406255	174.3064422607422	-558.211120605469	674.5742797851565	181.0681915283204	-661.5498657226565	559.3516845703127	123.9290161132813	-581.752136230469	560.8212890625002	185.8013763427735	-662.3081665039065	542.145935058594	249.7598419189454	-645.3386230468752	382.071990966797	188.9731903076172	-660.5600585937502	244.1075134277345	181.7581481933594	-696.5820922851565	321.3181457519532	109.0832748413087	-701.797058105469	102.6818084716797	121.8395919799805	-680.5902099609377	113.0136947631837	214.6612548828126	-765.4635009765627	61.20717620849612	166.1986389160157	-600.417663574219	94.62745666503909	169.611312866211	-628.6173095703127	69.57754516601565	107.1683197021485	-553.3411254882815	46.35104751586915	202.6567230224611	-497.8176879882815	58.52752685546878	164.1020965576172	-576.7795410156252	35.80931854248048	78.64507293701175	-631.2244873046877	825.264282226563	515.973083496094	-634.6571044921877	711.5081787109377	510.6053161621096	-527.955993652344	782.4492187500005	425.2476196289065	-549.0844726562502	686.0566406250002	421.613464355469	-652.0986938476565	559.7305908203127	490.8709411621096	-584.259704589844	550.7861938476565	427.4096374511721	-685.214538574219	544.223327636719	367.9624938964845	-658.261657714844	344.0326538085939	420.6674499511721	-673.0725097656252	218.1102294921876	414.7542114257815	-693.4680175781252	338.4662475585939	507.6035766601565	-695.0422973632815	103.0207214355469	482.2702941894534	-684.514343261719	112.8617782592774	388.0979919433596	-765.4635009765627	59.31724548339847	441.4047546386721	-592.5706176757815	97.95704650878912	432.2259826660159	-629.330261230469	69.72039794921878	491.2376708984377	-554.4072265625002	49.12471389770511	388.7994384765627	-493.9992675781252	59.06802368164065	426.3418884277346	-569.785339355469	40.70369720458986	515.9776000976565	
84	0.332	-691.6777954101565	1569.892822265626	314.2769165039064	-646.6021728515627	1557.791625976563	477.9962463378909	-684.6983032226565	1554.409057617188	158.7917938232422	-536.455505371094	1482.4267578125	310.1269836425782	-744.5813598632815	1374.493896484375	320.9145812988282	-708.7268676757815	1377.503784179688	41.70430374145509	-730.3028564453127	1253.614501953125	-15.56300258636475	-687.448669433594	1144.980102539063	-102.8227081298829	-669.017028808594	1021.140258789063	-165.3235778808594	-666.7731933593752	1388.805419921875	589.280700683594	-697.6381835937502	1264.558471679688	654.1155395507815	-656.572448730469	1154.506958007813	738.561706542969	-639.933044433594	1032.407104492188	802.3550415039067	-531.4760742187502	1086.365478515625	401.9750671386721	-558.0957641601565	1090.4912109375	186.5748291015626	-728.2947998046877	1134.782592773438	321.1697082519532	-749.7730712890627	1108.885864257813	270.102508544922	-739.353698730469	1105.360473632813	375.7285461425782	-774.2150878906255	1051.402221679688	323.9801635742189	-669.5728149414065	799.1522827148442	107.978370666504	-666.2908935546877	685.059997558594	114.0719451904297	-536.4903564453127	783.3739624023442	174.3541259765626	-558.1604614257815	674.5872802734377	181.1244812011719	-661.5487060546877	559.3798828125002	124.0356063842774	-581.7530517578127	560.8271484375002	185.8272399902344	-662.2821044921877	542.046569824219	249.7823333740236	-645.3135986328127	382.0133361816407	188.993148803711	-660.551940917969	244.1313018798829	181.7801818847657	-696.5640258789065	321.386688232422	109.092025756836	-701.7820434570315	102.685646057129	121.8393859863282	-680.4965820312502	113.0033416748047	214.8211059570314	-765.463562011719	61.29557037353518	166.2398071289063	-600.424987792969	94.56877899169925	169.6203613281251	-628.544128417969	69.61560821533206	107.0111312866212	-553.283142089844	46.35306549072267	202.747772216797	-497.7403564453127	58.54578781127933	164.0000762939454	-576.807067871094	35.92005920410158	78.66716003417972	-631.2568969726565	825.2622680664067	516.0292968750002	-634.5501098632815	711.5437622070315	510.8101196289065	-527.978698730469	782.4140014648442	425.2427673339846	-549.0297851562502	686.040222167969	421.4803771972659	-652.1448364257815	559.7150878906252	490.9736328125002	-584.2771606445315	550.785583496094	427.4301452636721	-685.2258911132815	544.218688964844	367.9588317871095	-658.2937011718752	344.0115966796876	420.6932373046877	-673.096862792969	218.0720520019532	414.8039550781252	-693.4619750976565	338.4297485351564	507.6033935546877	-695.0213623046877	103.0062332153321	482.292907714844	-684.7331542968752	112.8025817871094	388.2863769531252	-765.4935302734377	59.44949340820315	441.5238952636721	-592.3936767578127	97.97875213623053	432.0179748535159	-629.3118896484377	69.66313171386722	491.2205810546877	-554.3409423828127	49.05214691162112	388.6994628906252	-494.0166931152346	59.01507186889651	426.2484130859377	-569.8258056640627	40.68478775024415	515.9265136718752	
